#N canvas 615 219 398 361 12;
#X obj 71 63 inlet~;
#X obj 71 188 /~;
#X obj 90 162 abs~;
#X obj 71 236 clip~ 0 1;
#X obj 71 266 outlet~;
#X obj 145 63 inlet~;
#X obj 71 124 -~;
#X obj 219 87 f \$1;
#X obj 219 63 loadbang;
#X connect 0 0 6 0;
#X connect 1 0 3 0;
#X connect 2 0 1 1;
#X connect 3 0 4 0;
#X connect 5 0 6 1;
#X connect 6 0 2 0;
#X connect 6 0 1 0;
#X connect 7 0 5 0;
#X connect 8 0 7 0;
