#N canvas 437 152 1022 746 12;
#X text 215 131 y;
#X text 139 131 x;
#X obj 161 132 inlet~;
#X obj 64 629 outlet~;
#X obj 355 132 inlet~;
#X text 841 431 create/reseed;
#X obj 256 132 inlet~;
#X text 310 131 z;
#X obj 63 132 inlet~ fwd;
#N canvas 718 -1019 670 904 create_permutation 0;
#X obj 110 308 until;
#X obj 110 277 t f b;
#X msg 154 308 0;
#X obj 110 353 f;
#X obj 140 353 + 1;
#X obj 110 377 t f f;
#X obj 50 49 inlet;
#X text 205 111 set seed and recreate table;
#X text 266 473 shuffle values;
#X text 247 563 duplicate values;
#N canvas 1260 76 601 741 shuffle 0;
#X obj 78 386 until;
#X obj 78 494 t f f;
#X msg 128 328 0;
#X obj 78 410 t b b;
#X obj 110 433 f;
#X obj 140 433 + 1;
#X obj 78 578 t b f;
#X msg 78 601 0;
#X obj 110 540 array set \$0-output;
#X obj 55 38 inlet;
#X obj 317 227 array define \$0-source;
#X obj 277 161 list length;
#X obj 317 273 array define \$0-output;
#X msg 277 185 resize \$1;
#X obj 317 250 array define \$0-probabilities;
#X obj 78 363 array size \$0-probabilities;
#X obj 78 471 array random \$0-probabilities;
#X obj 78 624 array set \$0-probabilities;
#X obj 95 184 array set \$0-source;
#X obj 55 662 array get \$0-output;
#X obj 55 686 outlet;
#X obj 110 517 array get \$0-source;
#X obj 55 142 t b b l l;
#X obj 55 309 t b b b;
#X msg 75 239 const 1;
#X obj 75 263 s \$0-probabilities;
#X obj 189 38 inlet;
#X text 98 37 list;
#X text 233 37 seed;
#X connect 0 0 3 0;
#X connect 1 0 6 0;
#X connect 1 1 21 0;
#X connect 2 0 4 1;
#X connect 3 0 16 0;
#X connect 3 1 4 0;
#X connect 4 0 5 0;
#X connect 4 0 8 1;
#X connect 5 0 4 1;
#X connect 6 0 7 0;
#X connect 6 1 17 1;
#X connect 7 0 17 0;
#X connect 9 0 22 0;
#X connect 11 0 13 0;
#X connect 13 0 10 0;
#X connect 13 0 14 0;
#X connect 13 0 12 0;
#X connect 15 0 0 0;
#X connect 16 0 1 0;
#X connect 19 0 20 0;
#X connect 21 0 8 0;
#X connect 22 0 23 0;
#X connect 22 1 24 0;
#X connect 22 2 18 0;
#X connect 22 3 11 0;
#X connect 23 0 19 0;
#X connect 23 1 15 0;
#X connect 23 2 2 0;
#X connect 24 0 25 0;
#X connect 26 0 16 0;
#X restore 90 497 pd shuffle;
#X obj 110 181 array size \$0-permutation;
#X obj 110 205 / 2;
#X text 141 206 half table size;
#X obj 110 241 t f f, f 47;
#X obj 70 587 array set \$0-permutation;
#X obj 110 409 array set \$0-permutation;
#X obj 90 521 array set \$0-permutation;
#X obj 90 473 array get \$0-permutation;
#X text 172 353 create range;
#X text 291 409 write range;
#X obj 70 563 array get \$0-permutation;
#X msg 193 449 seed \$1;
#X obj 161 112 t b f;
#X obj 50 74 route bang float;
#X obj 50 687 until;
#X obj 50 656 t f b;
#X msg 94 687 0;
#X obj 50 732 f;
#X obj 80 732 + 1;
#X text 112 732 create range;
#X obj 50 632 array size \$0-permutation;
#X obj 50 150 t b b b b;
#X obj 50 756 t f f;
#X obj 50 834 array set \$0-permutmod12;
#X obj 50 780 array get \$0-permutation 0 1;
#X obj 50 807 mod 12;
#X connect 0 0 3 0;
#X connect 1 0 0 0;
#X connect 1 1 2 0;
#X connect 2 0 3 1;
#X connect 3 0 4 0;
#X connect 3 0 5 0;
#X connect 4 0 3 1;
#X connect 5 0 16 0;
#X connect 5 1 16 1;
#X connect 6 0 24 0;
#X connect 10 0 17 0;
#X connect 11 0 12 0;
#X connect 12 0 14 0;
#X connect 14 0 1 0;
#X connect 14 1 18 1;
#X connect 14 1 15 1;
#X connect 14 1 21 1;
#X connect 18 0 10 0;
#X connect 21 0 15 0;
#X connect 22 0 10 1;
#X connect 23 0 32 0;
#X connect 23 1 22 0;
#X connect 24 0 32 0;
#X connect 24 1 23 0;
#X connect 25 0 28 0;
#X connect 26 0 25 0;
#X connect 26 1 27 0;
#X connect 27 0 28 1;
#X connect 28 0 29 0;
#X connect 28 0 33 0;
#X connect 29 0 28 1;
#X connect 31 0 26 0;
#X connect 32 0 31 0;
#X connect 32 1 21 0;
#X connect 32 2 18 0;
#X connect 32 3 11 0;
#X connect 33 0 35 0;
#X connect 33 1 34 1;
#X connect 35 0 36 0;
#X connect 36 0 34 0;
#X restore 685 432 pd create_permutation;
#N canvas 799 356 426 342 create_gradients 0;
#X obj 39 42 inlet;
#X obj 39 66 t b b b;
#X obj 85 145 array set \$0-gradients-x;
#X obj 62 205 array set \$0-gradients-y;
#X obj 39 265 array set \$0-gradients-z;
#X text 118 42 hardcode gradients to tables;
#X msg 85 121 1 -1 1 -1 1 -1 1 -1 0 0 0 0;
#X msg 62 181 1 1 -1 -1 0 0 0 0 1 -1 1 -1;
#X msg 39 241 0 0 0 0 1 1 -1 -1 1 1 -1 -1;
#X connect 0 0 1 0;
#X connect 1 0 8 0;
#X connect 1 1 7 0;
#X connect 1 2 6 0;
#X connect 6 0 2 0;
#X connect 7 0 3 0;
#X connect 8 0 4 0;
#X restore 708 408 pd create_gradients;
#X obj 725 504 array define \$0-permutation 512;
#X text 407 131 persistence;
#X obj 639 48 loadbang;
#N canvas 549 229 765 493 parse_args 0;
#N canvas 445 57 629 841 parse_named_or_positional_arguments 0;
#X obj 46 41 inlet;
#X obj 46 165 t l l, f 10;
#X obj 46 189 list length;
#X obj 46 213 until;
#X obj 46 257 list store;
#X obj 46 308 list split 1, f 48;
#X text 150 499 check if "-" is first symbol;
#X obj 107 451 list fromsymbol;
#X obj 107 475 t f;
#X obj 107 499 == 45;
#X obj 296 601 list store;
#X obj 296 625 list split 1;
#X obj 107 688 symbol;
#X obj 296 688 list prepend;
#X obj 296 712 list trim;
#X text 90 212 iterate through list;
#X text 52 330 forward first element and send back leftovers for next iteration cycle, f 70;
#X obj 46 786 outlet;
#X obj 46 369 route float symbol;
#X obj 107 427 t s s s, f 39;
#X obj 107 712 list trim;
#X text 107 667 flag-candidate;
#X text 297 580 value-candidate;
#X text 299 667 key-candidate;
#X obj 107 523 sel 0 1;
#X text 112 407 expecting symbols for parameter keys and flags;
#X text 165 523 trigger flag or kwarg;
#X obj 46 115 pdcontrol;
#X msg 46 91 args 0;
#X obj 46 139 list split 1;
#X text 142 139 1st argument has to be octave count;
#X connect 0 0 28 0;
#X connect 1 0 2 0;
#X connect 1 1 4 1;
#X connect 2 0 3 0;
#X connect 3 0 4 0;
#X connect 4 0 5 0;
#X connect 5 0 18 0;
#X connect 5 1 4 1;
#X connect 5 1 10 1;
#X connect 7 0 8 0;
#X connect 8 0 9 0;
#X connect 9 0 24 0;
#X connect 10 0 11 0;
#X connect 11 0 13 0;
#X connect 11 1 4 1;
#X connect 12 0 20 0;
#X connect 13 0 14 0;
#X connect 14 0 17 0;
#X connect 18 0 17 0;
#X connect 18 1 19 0;
#X connect 19 0 7 0;
#X connect 19 1 12 1;
#X connect 19 2 13 1;
#X connect 20 0 17 0;
#X connect 24 0 12 0;
#X connect 24 1 10 0;
#X connect 27 0 29 0;
#X connect 28 0 27 0;
#X connect 29 1 1 0;
#X restore 69 117 pd parse_named_or_positional_arguments;
#X obj 69 65 inlet;
#X text 74 384 persistence;
#X text 201 384 seed;
#X obj 197 408 s \$0-seed;
#X obj 455 408 s \$0-normalize;
#X obj 69 408 s \$0-persistence;
#X text 459 384 normalize;
#X obj 69 352 t f;
#X obj 601 186 route float;
#X text 330 384 offset;
#X obj 326 408 s \$0-offset;
#X text 76 162 named arguments and flags;
#X obj 197 352 t f;
#X obj 326 352 t f;
#X obj 69 186 route -persistence -p -seed -s -offset -o normalize n, f 74;
#X obj 455 352 t b;
#X text 606 162 float;
#X connect 0 0 15 0;
#X connect 1 0 0 0;
#X connect 8 0 6 0;
#X connect 9 0 8 0;
#X connect 13 0 4 0;
#X connect 14 0 11 0;
#X connect 15 0 8 0;
#X connect 15 1 8 0;
#X connect 15 2 13 0;
#X connect 15 3 13 0;
#X connect 15 4 14 0;
#X connect 15 5 14 0;
#X connect 15 6 16 0;
#X connect 15 7 16 0;
#X connect 15 8 9 0;
#X connect 16 0 5 0;
#X restore 639 153 pd parse_args;
#X obj 662 113 f 0.5;
#X obj 355 89 r \$0-persistence;
#X obj 639 89 t b b b;
#X obj 421 432 r \$0-normalize;
#X text 364 154 default if no signal connected;
#X obj 485 304 r \$0-seed;
#X obj 472 336 route bang float;
#X text 746 360 fill tables with precalculations;
#X text 706 104 calculate tables \, set defaults \, then parse arguments, f 31;
#X obj 472 360 random 2.14748e+09;
#X obj 63 336 +~;
#X obj 160 336 +~;
#X obj 256 336 +~;
#X obj 274 304 r \$0-offset;
#X obj 63 544 /~;
#X obj 354 481 min~ 1;
#X text 94 544 divide by sum_of_octaves if normalization is on;
#X obj 421 456 f 2.14748e+09;
#X text 404 480 if normalize is not set \, 1 always min here;
#X obj 399 213 route persistence seed harmonics;
#N canvas 493 104 831 755 manage_harmonics 0;
#X obj 53 52 inlet;
#X obj 53 368 until;
#X obj 53 395 f;
#X obj 83 395 + 1;
#X obj 53 340 t f b;
#X msg 97 368 0;
#X obj 53 437 t f f;
#X obj 85 622 pack f \$0;
#X obj 53 679 s;
#X msg 85 646 symbol \$2-harmonic-\$1;
#X obj 574 52 array define \$0-harmonics;
#X obj 444 503 array size \$0-harmonics;
#X obj 412 528 array set \$0-harmonics;
#X obj 53 578 / 1;
#X obj 53 508 array get \$0-harmonics 0 1;
#X obj 53 302 array size \$0-harmonics;
#X obj 412 449 t l l;
#X text 459 449 write list to array;
#X text 57 135 send harmonics;
#X text 487 303 detect normalize flag;
#X obj 293 272 list split;
#X obj 386 253 - 1;
#X obj 386 229 list length;
#X obj 412 418 list store;
#X msg 343 382 get 0 \$1;
#X obj 368 354 f;
#X obj 326 305 sel normalize;
#X obj 414 382 t b;
#X obj 293 194 t l l l, f 27;
#X obj 326 335 t b b;
#X text 492 418 output list without normalize flag;
#X obj 444 476 list length;
#X msg 190 544 1;
#X text 152 232 reset normalize;
#X text 294 174 manage normalize;
#X obj 53 96 t b l b, f 20;
#X text 84 579 divide by sum if normalize set;
#N canvas 650 311 568 510 harmonics_sum 0;
#X obj 52 49 inlet;
#X obj 52 431 outlet;
#X obj 84 285 array get \$0-harmonics;
#X obj 84 155 array size \$0-harmonics;
#X obj 84 219 until;
#X obj 84 246 f;
#X obj 114 246 + 1;
#X obj 84 191 t f b;
#X msg 128 219 0;
#X obj 84 309 abs;
#X obj 84 335 +;
#X obj 115 335 f;
#X obj 52 382 f;
#X obj 52 102 t b b;
#X connect 0 0 13 0;
#X connect 2 0 9 0;
#X connect 3 0 7 0;
#X connect 4 0 5 0;
#X connect 5 0 6 0;
#X connect 5 0 2 0;
#X connect 6 0 5 1;
#X connect 7 0 4 0;
#X connect 7 1 8 0;
#X connect 8 0 5 1;
#X connect 8 0 11 0;
#X connect 9 0 10 0;
#X connect 10 0 11 0;
#X connect 10 0 12 1;
#X connect 11 0 10 1;
#X connect 12 0 1 0;
#X connect 13 0 12 0;
#X connect 13 1 3 0;
#X restore 326 559 pd harmonics_sum;
#X connect 0 0 35 0;
#X connect 1 0 2 0;
#X connect 2 0 3 0;
#X connect 2 0 6 0;
#X connect 3 0 2 1;
#X connect 4 0 1 0;
#X connect 4 1 5 0;
#X connect 5 0 2 1;
#X connect 6 0 14 0;
#X connect 6 1 7 0;
#X connect 7 0 9 0;
#X connect 9 0 8 1;
#X connect 13 0 8 0;
#X connect 14 0 13 0;
#X connect 15 0 4 0;
#X connect 16 0 12 0;
#X connect 16 1 31 0;
#X connect 20 1 26 0;
#X connect 21 0 20 1;
#X connect 21 0 25 1;
#X connect 22 0 21 0;
#X connect 23 0 16 0;
#X connect 24 0 23 0;
#X connect 25 0 24 0;
#X connect 26 0 29 0;
#X connect 26 1 27 0;
#X connect 27 0 23 0;
#X connect 28 0 20 0;
#X connect 28 1 22 0;
#X connect 28 2 23 1;
#X connect 29 0 37 0;
#X connect 29 1 25 0;
#X connect 31 0 11 0;
#X connect 32 0 13 1;
#X connect 35 0 15 0;
#X connect 35 1 28 0;
#X connect 35 2 32 0;
#X connect 37 0 13 1;
#X restore 578 265 pd manage_harmonics;
#X msg 546 265 1;
#X text 401 191 controls via message;
#X obj 546 241 t b l;
#X text 721 258 for harmonics \, send octave persistence to 1, f 23;
#X obj 63 432 clone \$1 simplex.3d~.cl \$0, f 42;
#X obj 725 479 array define \$0-permutmod12 512;
#X obj 732 529 array define \$0-gradients-x 12;
#X obj 732 554 array define \$0-gradients-y 12;
#X obj 732 579 array define \$0-gradients-z 12;
#X obj 652 604 array define \$0-i1 8;
#X obj 652 654 array define \$0-k1 8;
#X obj 802 604 array define \$0-i2 8;
#X obj 802 654 array define \$0-k2 8;
#X obj 685 360 t b b b;
#X obj 706 322 bng 19 250 50 0 empty empty empty 0 -10 0 12 #fcfcfc #000000 #000000;
#N canvas 24 39 385 524 create_simplex_corners 0;
#X obj 39 42 inlet;
#X obj 39 66 t b b b b b b;
#X obj 127 145 array set \$0-i1;
#X obj 109 205 array set \$0-j1;
#X obj 91 265 array set \$0-k1;
#X obj 74 325 array set \$0-i2;
#X obj 56 385 array set \$0-j2;
#X obj 39 445 array set \$0-k2;
#X text 118 42 hardcode simplex corners;
#X msg 127 121 0 0 0 1 0 0 1 1;
#X msg 109 181 0 1 0 0 0 1 0 0;
#X msg 91 241 1 0 1 0 1 0 0 0;
#X msg 74 301 0 0 1 1 0 1 1 1;
#X msg 56 361 1 1 0 1 1 1 0 1;
#X msg 39 421 1 1 1 0 1 0 1 0;
#X connect 0 0 1 0;
#X connect 1 0 14 0;
#X connect 1 1 13 0;
#X connect 1 2 12 0;
#X connect 1 3 11 0;
#X connect 1 4 10 0;
#X connect 1 5 9 0;
#X connect 9 0 2 0;
#X connect 10 0 3 0;
#X connect 11 0 4 0;
#X connect 12 0 5 0;
#X connect 13 0 6 0;
#X connect 14 0 7 0;
#X restore 731 384 pd create_simplex_corners;
#X obj 652 629 array define \$0-j1 8;
#X obj 802 629 array define \$0-j2 8;
#X connect 2 0 26 0;
#X connect 4 0 40 3;
#X connect 6 0 27 0;
#X connect 8 0 25 0;
#X connect 8 1 34 0;
#X connect 13 0 17 0;
#X connect 15 0 4 0;
#X connect 16 0 4 0;
#X connect 17 0 14 0;
#X connect 17 1 15 0;
#X connect 17 2 49 0;
#X connect 18 0 32 0;
#X connect 20 0 21 0;
#X connect 21 0 24 0;
#X connect 21 1 9 0;
#X connect 24 0 9 0;
#X connect 25 0 40 0;
#X connect 26 0 40 1;
#X connect 27 0 40 2;
#X connect 28 0 27 1;
#X connect 28 0 26 1;
#X connect 28 0 25 1;
#X connect 29 0 3 0;
#X connect 30 0 29 1;
#X connect 32 0 30 1;
#X connect 34 0 4 0;
#X connect 34 1 21 0;
#X connect 34 2 38 0;
#X connect 36 0 4 0;
#X connect 38 0 36 0;
#X connect 38 1 35 0;
#X connect 40 0 29 0;
#X connect 40 1 30 0;
#X connect 49 0 9 0;
#X connect 49 1 10 0;
#X connect 49 2 51 0;
#X connect 50 0 49 0;
