#N canvas 316 -1017 1312 900 12;
#X obj 273 398 tabwrite~ vis;
#X obj 160 230 cos~;
#X obj 194 230 cos~;
#X obj 194 206 +~ 0.25;
#X obj 160 398 dac~;
#X obj 228 254 *~ 768;
#X obj 262 278 osc~ 0.12;
#X obj 160 457 cnv 19 800 300 empty empty empty 20 12 0 12 #000000 #404040 0;
#N canvas 0 50 450 250 (subpatch) 0;
#X array vis 800 float 0;
#X coords 0 1 799 -1 800 300 1 0 0;
#X restore 160 457 graph;
#X obj 262 302 *~ 0.4;
#X obj 228 230 phasor~ 0.003;
#X obj 856 346 loadbang;
#X obj 273 350 r display;
#X obj 160 182 phasor~ 60;
#X obj 273 374 metro 33.3333;
#X obj 160 374 *~ 0.2;
#X obj 160 350 simplex.3d~ 7 n;
#X obj 262 326 +~ 0.4;
#X msg 856 370 \; display 1 \; vis color 999;
#X connect 1 0 16 0;
#X connect 2 0 16 1;
#X connect 3 0 2 0;
#X connect 5 0 16 2;
#X connect 6 0 9 0;
#X connect 9 0 17 0;
#X connect 10 0 5 0;
#X connect 11 0 18 0;
#X connect 12 0 14 0;
#X connect 13 0 1 0;
#X connect 13 0 3 0;
#X connect 14 0 0 0;
#X connect 15 0 4 0;
#X connect 15 0 4 1;
#X connect 16 0 0 0;
#X connect 16 0 15 0;
#X connect 17 0 16 3;
